<svg width="35" height="30" viewBox="0 0 39 36" fill="none" xmlns="http://www.w3.org/2000/svg">
<path d="M22.0999 2.28V2.16C22.0999 1.6 22.2799 1.1 22.6399 0.66C22.9999 0.22 23.4599 0 24.0199 0C24.5799 0 25.0799 0.18 25.5199 0.54C25.9599 0.9 26.1999 1.38 26.2399 1.98C26.2799 2.58 26.0999 3.08 25.6999 3.48C25.2999 3.88 24.8199 4.08 24.2599 4.08L23.8999 4.2L24.0199 4.38L23.8999 5.04L23.6599 6.96C23.7399 7.04 23.7799 7.12 23.7799 7.2L23.5399 8.4C23.4599 8.56 23.3799 8.68 23.2999 8.76L23.1799 9.24C23.0199 9.88 22.8799 10.4 22.7599 10.8C22.6399 11.2 22.5399 11.52 22.4599 11.76V12C22.3799 12.4 22.3199 12.72 22.2799 12.96C22.2399 13.2 22.0999 13.6 21.8599 14.16C21.6999 14.48 21.6999 15 21.8599 15.72L21.9799 15.84C21.9799 16.08 22.0799 16.36 22.2799 16.68C22.4799 17 22.5799 17.28 22.5799 17.52C22.6599 19.12 22.5399 20.48 22.2199 21.6L22.4599 22.32C23.4199 22.8 23.6999 23.32 23.2999 23.88L23.8999 24.12C24.8599 24.6 25.5399 25.02 25.9399 25.38C26.3399 25.74 26.7399 26.12 27.1399 26.52C27.4599 26.6 27.6999 26.72 27.8599 26.88L28.2199 27C29.8999 28.12 31.5799 29.48 33.2599 31.08L33.7399 31.44V31.56L33.6199 31.8L33.9799 32.04H34.0999C34.3399 32.2 34.4999 32.28 34.5799 32.28H34.6999C34.7799 32.28 34.8599 32.24 34.9399 32.16L35.1799 32.04C35.3399 31.88 35.4999 31.76 35.6599 31.68H36.1399C36.2199 31.68 36.2199 31.72 36.1399 31.8L35.6599 32.04L35.0599 32.76H35.8999L36.7399 32.88C36.9799 32.8 37.1799 32.72 37.3399 32.64L37.9399 32.28C38.1799 32.2 38.4199 32.28 38.6599 32.52H38.7799C38.8599 32.6 38.8199 32.72 38.6599 32.88L37.2199 34.2C36.8199 34.52 36.4599 34.72 36.1399 34.8L34.5799 35.88C34.4999 35.96 34.4199 35.96 34.3399 35.88L33.9799 35.4L33.7399 34.92L33.4399 34.5L33.0799 34.02L32.7799 33.66L32.5399 33.36L32.0599 33C31.8999 33 31.7399 32.96 31.5799 32.88L30.0199 31.68C29.7799 31.68 29.4999 31.56 29.1799 31.32C27.9799 30.28 27.1799 29.64 26.7799 29.4L26.0599 28.92L24.6199 28.68C24.1399 28.6 23.4999 28.36 22.6999 27.96L21.7399 27.48C21.0999 27.16 20.6599 27 20.4199 27L19.9399 26.76C19.6199 26.68 19.3799 26.6 19.2199 26.52L18.9799 26.28C18.8199 26.28 18.6599 26.32 18.4999 26.4L16.0999 27.6L13.0999 28.92C12.2999 29.56 11.5399 30.08 10.8199 30.48L9.49992 31.08L7.45992 32.52C7.29992 32.68 7.13992 32.68 6.97992 32.52L6.73992 32.76C6.49992 32.84 6.33992 32.88 6.25992 32.88L5.77992 33.12V33.36H5.53992L5.29992 33.72C5.13992 34.04 4.97992 34.22 4.81992 34.26C4.65992 34.3 4.55992 34.36 4.51992 34.44C4.47992 34.52 4.43992 34.58 4.39992 34.62L4.15992 34.86L3.79992 35.1L3.25992 35.04L2.53992 35.16L2.05992 35.28C1.65992 35.36 1.33992 35.3 1.09992 35.1C0.859922 34.9 0.659922 34.6 0.499922 34.2C0.339922 33.96 0.419922 33.76 0.739922 33.6L0.859922 33.48C0.939922 33.4 1.05992 33.36 1.21992 33.36H1.93992L2.89992 33L3.37992 32.88C3.37992 32.72 3.41992 32.6 3.49992 32.52C3.57992 32.44 3.69992 32.4 3.85992 32.4V32.28C3.77992 32.12 3.73992 31.96 3.73992 31.8C3.65992 31.64 3.63992 31.52 3.67992 31.44C3.71992 31.36 3.75992 31.32 3.79992 31.32H3.85992L3.97992 31.68C4.05992 32.08 4.17992 32.2 4.33992 32.04L4.45992 31.8C4.53992 31.64 4.65992 31.56 4.81992 31.56L5.05992 31.8L5.29992 31.56L5.17992 31.44C5.17992 31.36 5.21992 31.32 5.29992 31.32L5.77992 30.84C6.17992 30.36 6.65992 29.92 7.21992 29.52C8.33992 28.64 9.53992 27.96 10.8199 27.48C11.2199 27.08 11.6599 26.88 12.1399 26.88C12.4599 26.32 12.9399 25.72 13.5799 25.08C14.1399 24.68 14.5399 24.4 14.7799 24.24C14.9399 23.92 15.1399 23.76 15.3799 23.76H15.4999L15.7399 23.52C15.8999 23.44 16.0199 23.36 16.0999 23.28V22.68C16.0999 22.28 16.1399 21.96 16.2199 21.72C16.2999 21.48 16.4999 21.36 16.8199 21.36L17.2999 20.88C17.1399 20.56 17.0599 20.2 17.0599 19.8H16.9399C16.7799 19.56 16.6999 19.32 16.6999 19.08C16.4599 18.68 16.2999 18.36 16.2199 18.12H15.8599C15.7799 18.36 15.5799 18.52 15.2599 18.6L15.1399 18.84C14.8199 19.4 14.5399 19.82 14.2999 20.1C14.0599 20.38 13.6199 20.72 12.9799 21.12C12.5799 21.52 12.2999 21.96 12.1399 22.44C12.0599 22.68 12.0599 22.92 12.1399 23.16L12.0199 23.4H12.1399C12.1399 23.56 12.1799 23.64 12.2599 23.64H12.3799C12.5399 23.72 12.6199 23.82 12.6199 23.94C12.6199 24.06 12.4999 24.1 12.2599 24.06C12.0199 24.02 11.8399 23.94 11.7199 23.82C11.5999 23.7 11.4999 23.64 11.4199 23.64L11.0599 24C10.8999 24.24 10.7399 24.34 10.5799 24.3C10.4199 24.26 10.3799 24.2 10.4599 24.12L10.5799 24C10.6599 23.84 10.6599 23.76 10.5799 23.76L9.61992 24C9.53992 24.08 9.43992 24.08 9.31992 24C9.19992 23.92 9.21992 23.84 9.37992 23.76L9.97992 23.52C9.97992 23.44 9.93992 23.4 9.85992 23.4C9.53992 23.56 9.21992 23.6 8.89992 23.52L8.29992 23.4L8.17992 23.28C8.17992 23.2 8.21992 23.16 8.29992 23.16C8.61992 23.24 9.01992 23.2 9.49992 23.04L10.3399 22.68L11.2999 21.6L11.4199 21.36C11.7399 20.72 12.0799 20.14 12.4399 19.62C12.7999 19.1 13.1799 18.68 13.5799 18.36L13.6999 17.88C13.8599 17.56 14.0199 17.28 14.1799 17.04C14.3399 16.8 14.5399 16.48 14.7799 16.08L15.1399 15.6C15.4599 15.12 15.8199 14.88 16.2199 14.88L16.5799 14.52C16.6599 14.44 16.6999 14.32 16.6999 14.16L16.9399 13.92L16.8199 13.8C16.3399 13.4 16.0999 13.04 16.0999 12.72C16.0199 12.16 16.1999 11.68 16.6399 11.28C17.0799 10.88 17.5199 10.7 17.9599 10.74C18.3999 10.78 18.7399 10.92 18.9799 11.16L19.2199 11.4C19.2999 11.4 19.3399 11.44 19.3399 11.52L19.8199 11.76V12.12C19.9799 12.28 20.0599 12.4 20.0599 12.48C20.2199 12.24 20.4599 11.96 20.7799 11.64L21.3799 9.72C21.3799 9.4 21.4599 9.08 21.6199 8.76L21.8599 8.4V8.16L22.2199 6.72H22.4599L22.8199 5.28C22.8999 5.04 22.8999 4.76 22.8199 4.44L22.3399 3.24L22.0999 2.28Z" fill="white"/>
</svg>
